<svg width="80" height="80" viewBox="0 0 80 80" fill="none" xmlns="http://www.w3.org/2000/svg">
<rect width="80" height="80" rx="8" fill="#191919"/>
<rect x="1" y="1" width="78" height="78" rx="7" stroke="white" stroke-opacity="0.1" stroke-width="2"/>
<g clip-path="url(#clip0_1375_1922)">
<path d="M26.6668 28.3322C26.6668 27.8902 26.8424 27.4662 27.155 27.1537C27.4675 26.8411 27.8915 26.6655 28.3335 26.6655H35.0001C35.4422 26.6655 35.8661 26.8411 36.1787 27.1537C36.4912 27.4662 36.6668 27.8902 36.6668 28.3322V34.9989C36.6668 35.4409 36.4912 35.8648 36.1787 36.1774C35.8661 36.4899 35.4422 36.6655 35.0001 36.6655H28.3335C27.8915 36.6655 27.4675 36.4899 27.155 36.1774C26.8424 35.8648 26.6668 35.4409 26.6668 34.9989V28.3322Z" stroke="#999999" stroke-width="2.5" stroke-linecap="round" stroke-linejoin="round"/>
<path d="M26.6668 45.0011C26.6668 44.5591 26.8424 44.1352 27.155 43.8226C27.4675 43.5101 27.8915 43.3345 28.3335 43.3345H35.0001C35.4422 43.3345 35.8661 43.5101 36.1787 43.8226C36.4912 44.1352 36.6668 44.5591 36.6668 45.0011V51.6678C36.6668 52.1098 36.4912 52.5338 36.1787 52.8463C35.8661 53.1589 35.4422 53.3345 35.0001 53.3345H28.3335C27.8915 53.3345 27.4675 53.1589 27.155 52.8463C26.8424 52.5338 26.6668 52.1098 26.6668 51.6678V45.0011Z" stroke="#999999" stroke-width="2.5" stroke-linecap="round" stroke-linejoin="round"/>
<path d="M43.3332 45.0011C43.3332 44.5591 43.5088 44.1352 43.8213 43.8226C44.1339 43.5101 44.5578 43.3345 44.9998 43.3345H51.6665C52.1085 43.3345 52.5325 43.5101 52.845 43.8226C53.1576 44.1352 53.3332 44.5591 53.3332 45.0011V51.6678C53.3332 52.1098 53.1576 52.5338 52.845 52.8463C52.5325 53.1589 52.1085 53.3345 51.6665 53.3345H44.9998C44.5578 53.3345 44.1339 53.1589 43.8213 52.8463C43.5088 52.5338 43.3332 52.1098 43.3332 51.6678V45.0011Z" stroke="#999999" stroke-width="2.5" stroke-linecap="round" stroke-linejoin="round"/>
<path d="M43.3332 31.6655H53.3332" stroke="#999999" stroke-width="2.5" stroke-linecap="round" stroke-linejoin="round"/>
<path d="M48.3332 26.6655V36.6655" stroke="#999999" stroke-width="2.5" stroke-linecap="round" stroke-linejoin="round"/>
</g>
<defs>
<clipPath id="clip0_1375_1922">
<rect width="40" height="40" fill="white" transform="translate(20 20)"/>
</clipPath>
</defs>
</svg>
