<svg width="20" height="20" viewBox="0 0 20 20" fill="none" xmlns="http://www.w3.org/2000/svg">
<g clip-path="url(#clip0_1446_4922)">
<path d="M3.33334 10.8335C4.81925 11.0101 6.20255 11.6814 7.26064 12.7395C8.31873 13.7976 8.99009 15.1809 9.16668 16.6668C9.90328 16.2422 10.5194 15.6367 10.9569 14.9076C11.3943 14.1785 11.6386 13.3499 11.6667 12.5002C13.0659 12.0079 14.2878 11.1118 15.1778 9.92517C16.0678 8.73852 16.5859 7.31461 16.6667 5.8335C16.6667 5.17045 16.4033 4.53457 15.9344 4.06573C15.4656 3.59689 14.8297 3.3335 14.1667 3.3335C12.6856 3.41425 11.2617 3.93238 10.075 4.82237C8.88835 5.71236 7.99225 6.93424 7.50001 8.3335C6.65023 8.36156 5.82164 8.60586 5.09256 9.04331C4.36349 9.48075 3.758 10.0969 3.33334 10.8335Z" stroke="#191919" stroke-width="1.25" stroke-linecap="round" stroke-linejoin="round"/>
<path d="M5.83335 11.6665C4.96604 12.1561 4.26473 12.8937 3.81931 13.7845C3.3739 14.6753 3.20468 15.6789 3.33335 16.6665C4.32098 16.7952 5.32454 16.626 6.21537 16.1805C7.1062 15.7351 7.84371 15.0338 8.33335 14.1665" stroke="#191919" stroke-width="1.25" stroke-linecap="round" stroke-linejoin="round"/>
<path d="M11.6667 7.49984C11.6667 7.72085 11.7545 7.93281 11.9107 8.08909C12.067 8.24537 12.279 8.33317 12.5 8.33317C12.721 8.33317 12.933 8.24537 13.0892 8.08909C13.2455 7.93281 13.3333 7.72085 13.3333 7.49984C13.3333 7.27882 13.2455 7.06686 13.0892 6.91058C12.933 6.7543 12.721 6.6665 12.5 6.6665C12.279 6.6665 12.067 6.7543 11.9107 6.91058C11.7545 7.06686 11.6667 7.27882 11.6667 7.49984Z" stroke="#191919" stroke-width="1.25" stroke-linecap="round" stroke-linejoin="round"/>
</g>
<defs>
<clipPath id="clip0_1446_4922">
<rect width="20" height="20" fill="white"/>
</clipPath>
</defs>
</svg>
