<svg width="160" height="160" viewBox="0 0 160 160" fill="none" xmlns="http://www.w3.org/2000/svg">
<path d="M0 0H160V160H0V0Z" fill="black"/>
<path d="M8 46H38V76H8V46Z" fill="#CD72FC"/>
<path d="M14 70H38V74H14V70Z" fill="black"/>
<path d="M8 8H38V38H8V8Z" fill="#CD72FC"/>
<path d="M14 32H38V36H14V32Z" fill="black"/>
<path d="M8 84H38V114H8V84Z" fill="#CD72FC"/>
<path d="M14 108H38V112H14V108Z" fill="black"/>
<path d="M8 122H38V152H8V122Z" fill="#CD72FC"/>
<path d="M14 146H38V150H14V146Z" fill="black"/>
<path d="M84 46H114V76H84V46Z" fill="white"/>
<path d="M90 70H114V74H90V70Z" fill="black"/>
<path d="M84 8V38H114V34H88V8H84Z" fill="#666666"/>
<path d="M122 8V38H152V34H126V8H122Z" fill="#666666"/>
<path d="M122 46H152V76H122V46Z" fill="white"/>
<path d="M128 70H152V74H128V70Z" fill="black"/>
<path d="M46 46H76V76H46V46Z" fill="white"/>
<path d="M52 70H76V74H52V70Z" fill="black"/>
<path d="M46 8H76V38H46V8Z" fill="white"/>
<path d="M52 32H76V36H52V32Z" fill="black"/>
<path d="M46 84H76V114H46V84Z" fill="white"/>
<path d="M52 108H76V112H52V108Z" fill="black"/>
<path d="M84 84V114H114V110H88V84H84Z" fill="#666666"/>
<path d="M122 84H152V114H122V84Z" fill="white"/>
<path d="M128 108H152V112H128V108Z" fill="black"/>
<path d="M84 122H114V152H84V122Z" fill="white"/>
<path d="M90 146H114V150H90V146Z" fill="black"/>
<path d="M46 122H76V152H46V122Z" fill="white"/>
<path d="M52 146H76V150H52V146Z" fill="black"/>
<path d="M122 122H152V152H122V122Z" fill="white"/>
<path d="M128 146H152V150H128V146Z" fill="black"/>
</svg>
