<svg width="40" height="40" viewBox="0 0 40 40" fill="none"
  xmlns="http://www.w3.org/2000/svg">
  <path d="M10.9563 17H18.9563V40H10.9563V17Z" fill="white"/>
  <path d="M25.9563 17H33.9563V40H25.9563V17Z" fill="white"/>
  <path d="M0 0H40V30H0V0Z" fill="white"/>
  <path fill-rule="evenodd" clip-rule="evenodd" d="M3.25 40L18.829 40C18.413 36.0656 15.0843 33 11.0395 33C6.99478 33 3.66605 36.0656 3.25 40Z" fill="white"/>
  <path fill-rule="evenodd" clip-rule="evenodd" d="M18.373 40L33.9521 40C33.536 36.0656 30.2073 33 26.1626 33C22.1178 33 18.7891 36.0656 18.373 40Z" fill="white"/>
  <path d="M18.5 15.125C18.5 19.3362 15.1421 22.75 11 22.75C6.85786 22.75 3.5 19.3362 3.5 15.125C3.5 10.9138 6.85786 7.5 11 7.5C15.1421 7.5 18.5 10.9138 18.5 15.125Z" fill="black"/>
  <path d="M36.5 15.125C36.5 19.3362 33.1421 22.75 29 22.75C24.8579 22.75 21.5 19.3362 21.5 15.125C21.5 10.9138 24.8579 7.5 29 7.5C33.1421 7.5 36.5 10.9138 36.5 15.125Z" fill="black"/>
  <path d="M15.75 15.25C15.75 17.8734 13.6234 20 11 20C8.37665 20 6.25 17.8734 6.25 15.25C6.25 12.6266 8.37665 10.5 11 10.5C13.6234 10.5 15.75 12.6266 15.75 15.25Z" fill="white"/>
  <path d="M33.75 15.25C33.75 17.8734 31.6234 20 29 20C26.3766 20 24.25 17.8734 24.25 15.25C24.25 12.6266 26.3766 10.5 29 10.5C31.6234 10.5 33.75 12.6266 33.75 15.25Z" fill="white"/>
</svg>
