<svg width="122" height="40" viewBox="0 0 122 40" fill="none" xmlns="http://www.w3.org/2000/svg">
<rect x="10.1587" y="17.1428" width="7.61905" height="21.9048" fill="white"/>
<rect x="25.0796" y="17.1428" width="7.61905" height="21.9048" fill="white"/>
<rect y="0.952393" width="38.0952" height="28.5714" fill="white"/>
<path fill-rule="evenodd" clip-rule="evenodd" d="M2.89844 39.0477L17.7356 39.0477C17.3393 35.3006 14.1691 32.3811 10.317 32.3811C6.46492 32.3811 3.29472 35.3006 2.89844 39.0477Z" fill="white"/>
<path fill-rule="evenodd" clip-rule="evenodd" d="M17.7778 39.0477L32.615 39.0477C32.2187 35.3006 29.0485 32.3811 25.1964 32.3811C21.3443 32.3811 18.1741 35.3006 17.7778 39.0477Z" fill="white"/>
<ellipse cx="10.4764" cy="15.3571" rx="7.14286" ry="7.2619" fill="black"/>
<ellipse cx="27.6189" cy="15.3571" rx="7.14286" ry="7.2619" fill="black"/>
<circle cx="10.4764" cy="15.4762" r="4.52381" fill="white"/>
<circle cx="27.619" cy="15.4762" r="4.52381" fill="white"/>
<path d="M51.8676 19V0.82857H54.5429V19H51.8676ZM63.9062 19V0.82857H66.5814V19H63.9062ZM53.18 8.42524H65.0924V10.6462H53.18V8.42524ZM70.8327 19V0.82857H73.5079V19H70.8327ZM77.7455 19V0.82857H85.4432C86.7555 0.82857 87.8744 1.0473 88.7998 1.48476C89.7252 1.92222 90.4319 2.54476 90.9198 3.35238C91.4246 4.16 91.677 5.11905 91.677 6.22952C91.677 7.35682 91.4246 8.3327 90.9198 9.15714C90.4319 9.96476 89.7168 10.5957 88.7746 11.05C87.8492 11.5043 86.7387 11.7314 85.4432 11.7314H79.7898V9.51048H85.317C86.5116 9.51048 87.4201 9.22444 88.0427 8.65238C88.6821 8.08032 89.0017 7.28111 89.0017 6.25476C89.0017 5.21159 88.6905 4.41238 88.0679 3.85714C87.4454 3.3019 86.5284 3.02428 85.317 3.02428H80.4208V19H77.7455ZM51.8676 39V20.8286H54.5429V39H51.8676ZM63.9062 39V20.8286H66.5814V39H63.9062ZM53.18 28.4252H65.0924V30.6462H53.18V28.4252ZM78.9341 39.2524C77.6385 39.2524 76.4524 39.0252 75.3755 38.571C74.2987 38.0998 73.3649 37.4437 72.5741 36.6024C71.7833 35.7611 71.1608 34.7684 70.7065 33.6243C70.269 32.4802 70.0503 31.2183 70.0503 29.8386C70.0503 28.0214 70.4289 26.4146 71.186 25.0181C71.9431 23.6216 72.9863 22.5363 74.3155 21.7624C75.6616 20.9716 77.1927 20.5762 78.9089 20.5762C80.6587 20.5762 82.1982 20.9716 83.5274 21.7624C84.8566 22.5363 85.8998 23.6216 86.657 25.0181C87.4309 26.4146 87.8179 28.0298 87.8179 29.8638C87.8179 31.2267 87.5908 32.4886 87.1365 33.6495C86.699 34.7937 86.0849 35.7863 85.2941 36.6276C84.5033 37.4521 83.5611 38.0998 82.4674 38.571C81.3906 39.0252 80.2128 39.2524 78.9341 39.2524ZM78.9089 36.981C80.1203 36.981 81.1887 36.6781 82.1141 36.0724C83.0395 35.4498 83.763 34.6002 84.2846 33.5233C84.823 32.4465 85.0922 31.2098 85.0922 29.8133C85.0922 28.4337 84.8314 27.2222 84.3098 26.179C83.7882 25.119 83.0647 24.303 82.1393 23.731C81.2139 23.1421 80.1371 22.8476 78.9089 22.8476C77.6806 22.8476 76.6038 23.1421 75.6784 23.731C74.7698 24.303 74.0547 25.1106 73.5331 26.1538C73.0284 27.197 72.776 28.4168 72.776 29.8133C72.776 31.2267 73.0368 32.4717 73.5584 33.5486C74.08 34.6254 74.7951 35.4667 75.7036 36.0724C76.629 36.6781 77.6974 36.981 78.9089 36.981ZM91.2765 39V20.8286H98.9741C100.287 20.8286 101.405 21.0473 102.331 21.4848C103.256 21.9222 103.963 22.5448 104.451 23.3524C104.956 24.16 105.208 25.119 105.208 26.2295C105.208 27.3568 104.956 28.3327 104.451 29.1571C103.963 29.9648 103.248 30.5957 102.306 31.05C101.38 31.5043 100.27 31.7314 98.9741 31.7314H93.3208V29.5105H98.8479C100.043 29.5105 100.951 29.2244 101.574 28.6524C102.213 28.0803 102.533 27.2811 102.533 26.2548C102.533 25.2116 102.221 24.4124 101.599 23.8571C100.976 23.3019 100.059 23.0243 98.8479 23.0243H93.9518V39H91.2765ZM114.709 39.2271C112.522 39.2271 110.772 38.7056 109.46 37.6624C108.147 36.6192 107.382 35.1302 107.163 33.1952H109.762C109.914 34.4571 110.419 35.4162 111.277 36.0724C112.135 36.7286 113.296 37.0567 114.76 37.0567C115.988 37.0567 116.913 36.8295 117.536 36.3752C118.175 35.921 118.495 35.2732 118.495 34.4319C118.495 33.6748 118.284 33.0775 117.864 32.64C117.443 32.1857 116.779 31.8156 115.87 31.5295L112.715 30.52C111.1 29.9984 109.914 29.3422 109.157 28.5514C108.4 27.7606 108.021 26.7595 108.021 25.5481C108.021 24.5217 108.273 23.6384 108.778 22.8981C109.3 22.1578 110.023 21.5857 110.949 21.1819C111.891 20.7613 112.984 20.551 114.23 20.551C116.148 20.551 117.679 21.0389 118.823 22.0148C119.984 22.9738 120.648 24.3114 120.817 26.0276H118.217C118.015 24.8835 117.578 24.0506 116.905 23.529C116.232 22.9906 115.306 22.7214 114.129 22.7214C113.018 22.7214 112.152 22.9402 111.529 23.3776C110.907 23.8151 110.595 24.4292 110.595 25.22C110.595 25.8594 110.797 26.3978 111.201 26.8352C111.622 27.2559 112.311 27.6176 113.271 27.9205L116.577 28.9805C118.108 29.4684 119.235 30.133 119.959 30.9743C120.699 31.8156 121.069 32.8756 121.069 34.1543C121.069 35.7695 120.514 37.023 119.403 37.9148C118.293 38.7897 116.728 39.2271 114.709 39.2271Z" fill="white"/>
</svg>
